<svg width="20" height="20" viewBox="0 0 20 20" fill="none" xmlns="http://www.w3.org/2000/svg">
<path d="M7.21368 4.79651C7.06291 4.94728 6.97055 5.15681 6.97085 5.38691L6.97085 5.48819C6.97085 5.94899 7.34388 6.32203 7.80409 6.32144L12.357 6.32144L4.65526 14.0232C4.32999 14.3485 4.32999 14.8764 4.65526 15.2017C4.98053 15.527 5.5085 15.527 5.83377 15.2017L13.5355 7.49995V12.0529C13.5355 12.5137 13.9086 12.8867 14.3688 12.8861H14.47C14.9308 12.8861 15.3039 12.5131 15.3033 12.0529V5.38691C15.3033 4.92612 14.9303 4.55308 14.47 4.55367L7.80409 4.55367C7.57369 4.55367 7.36446 4.64573 7.21368 4.79651Z" fill="#34C759"/>
</svg>
