<svg width="24" height="24" viewBox="0 0 24 24" fill="none" xmlns="http://www.w3.org/2000/svg">
<path fill-rule="evenodd" clip-rule="evenodd" d="M8.89269 6.29011C8.95935 5.82468 9.10158 5.56798 9.30307 5.39527C9.63839 5.10786 10.3628 4.8499 11.9999 4.8499C13.637 4.8499 14.3614 5.10786 14.6967 5.39527C14.8985 5.56826 15.0409 5.82549 15.1074 6.29231C14.2012 6.18934 13.1685 6.1499 11.9999 6.1499C10.8299 6.1499 9.79765 6.18947 8.89269 6.29011ZM7.15879 6.60308C7.20273 5.67755 7.42661 4.76464 8.19673 4.10453C9.02808 3.39195 10.3036 3.1499 11.9999 3.1499C13.6962 3.1499 14.9717 3.39195 15.8031 4.10453C16.5762 4.7672 16.7988 5.68464 16.8415 6.61385C17.7271 6.86083 18.4775 7.2341 19.0803 7.7976C20.2613 8.90148 20.6877 10.5593 20.8091 12.7388C20.8356 12.8211 20.8499 12.9088 20.8499 12.9999C20.8499 13.1576 20.8468 13.3168 20.8386 13.4765C20.8465 13.7792 20.8499 14.091 20.8499 14.4117C20.8499 16.8465 20.532 18.8445 19.0662 20.154C17.6392 21.4289 15.3373 21.8499 11.9999 21.8499C10.3151 21.8499 8.91591 21.7679 7.77115 21.5395C6.62212 21.3104 5.67013 20.9226 4.93458 20.2675C3.45516 18.9499 3.1499 16.8221 3.1499 13.9999C3.1499 13.7797 3.15176 13.5638 3.15589 13.3521C3.15164 13.2342 3.1499 13.1166 3.1499 12.9999C3.1499 12.933 3.15763 12.8679 3.17226 12.8054C3.26444 10.572 3.67174 8.85705 4.93458 7.73234C5.53519 7.19742 6.28011 6.84072 7.15879 6.60308ZM4.8569 13.3409C4.91084 10.9191 5.27958 9.70156 6.06523 9.00184C6.49635 8.61787 7.12768 8.32209 8.10366 8.12743C9.08389 7.93192 10.3514 7.8499 11.9999 7.8499C13.6492 7.8499 14.9141 7.93206 15.8913 8.13288C16.8622 8.3324 17.4891 8.63726 17.9195 9.03952C18.6916 9.76126 19.0645 11.0151 19.1367 13.4589C19.1136 13.8252 19.0585 14.1212 18.9612 14.3694C18.8369 14.6867 18.6281 14.9657 18.2261 15.2151C17.3433 15.7629 15.5691 16.1499 12.0059 16.1499C8.44313 16.1499 6.66513 15.763 5.77886 15.2146C5.37493 14.9647 5.16491 14.685 5.03987 14.3678C4.93186 14.0939 4.87542 13.7616 4.8569 13.3409ZM18.9825 16.7429C18.8013 17.7422 18.4646 18.4118 17.9336 18.8862C17.0273 19.6959 15.3292 20.1499 11.9999 20.1499C10.3514 20.1499 9.08389 20.0679 8.10366 19.8724C7.12768 19.6777 6.49635 19.3819 6.06523 18.998C5.5476 18.537 5.21095 17.8512 5.02607 16.7443C6.37561 17.5115 8.5683 17.8499 12.0059 17.8499C15.4446 17.8499 17.6356 17.5113 18.9825 16.7429ZM9.1499 13.9999C9.1499 13.5305 9.53046 13.1499 9.9999 13.1499H13.9999C14.4693 13.1499 14.8499 13.5305 14.8499 13.9999C14.8499 14.4693 14.4693 14.8499 13.9999 14.8499L9.9999 14.8499C9.53046 14.8499 9.1499 14.4693 9.1499 13.9999Z" fill="#7C8DB5"/>
</svg>
