<svg width="24" height="24" viewBox="0 0 24 24" fill="none" xmlns="http://www.w3.org/2000/svg">
<path fill-rule="evenodd" clip-rule="evenodd" d="M11.5502 3.8499C16.0808 3.8499 19.7002 7.46934 19.7002 11.9999C19.7002 12.9992 19.5182 13.9913 19.161 14.8842C19.078 15.0918 19.0801 15.3237 19.1668 15.5298L20.27 18.1499H17.1502C16.9572 18.1499 16.7699 18.2156 16.6192 18.3362C15.2549 19.4276 13.4388 20.1499 11.5502 20.1499C7.01964 20.1499 3.4002 16.5305 3.4002 11.9999C3.4002 7.46934 7.01964 3.8499 11.5502 3.8499ZM21.4002 11.9999C21.4002 6.53046 17.0196 2.1499 11.5502 2.1499C6.08075 2.1499 1.7002 6.53046 1.7002 11.9999C1.7002 17.4693 6.08075 21.8499 11.5502 21.8499C13.7501 21.8499 15.8345 21.0548 17.4408 19.8499H21.249C21.9999 19.8499 22.5081 19.0845 22.2167 18.3924L20.865 15.1821C21.2235 14.1681 21.4002 13.0811 21.4002 11.9999ZM7.55021 11.3499C6.91509 11.3499 6.40021 11.8648 6.40021 12.4999C6.40021 13.135 6.91509 13.6499 7.55021 13.6499C8.18534 13.6499 8.70021 13.135 8.70021 12.4999C8.70021 11.8648 8.18534 11.3499 7.55021 11.3499ZM11.5502 11.3499C10.9151 11.3499 10.4002 11.8648 10.4002 12.4999C10.4002 13.135 10.9151 13.6499 11.5502 13.6499C12.1853 13.6499 12.7002 13.135 12.7002 12.4999C12.7002 11.8648 12.1853 11.3499 11.5502 11.3499ZM15.5502 11.3499C14.9151 11.3499 14.4002 11.8648 14.4002 12.4999C14.4002 13.135 14.9151 13.6499 15.5502 13.6499C16.1853 13.6499 16.7002 13.135 16.7002 12.4999C16.7002 11.8648 16.1853 11.3499 15.5502 11.3499Z" fill="#7C8DB5"/>
</svg>
