<svg width="20" height="20" viewBox="0 0 20 20" fill="none" xmlns="http://www.w3.org/2000/svg">
<path d="M13.3332 1.66675H6.6665C3.33317 1.66675 1.6665 3.33341 1.6665 6.66675V17.5001C1.6665 17.9584 2.0415 18.3334 2.49984 18.3334H13.3332C16.6665 18.3334 18.3332 16.6667 18.3332 13.3334V6.66675C18.3332 3.33341 16.6665 1.66675 13.3332 1.66675ZM9.25817 13.8834C9.04984 14.0917 8.6665 14.2834 8.38317 14.3251L6.64984 14.5667C6.58317 14.5751 6.5165 14.5834 6.45817 14.5834C6.1665 14.5834 5.89984 14.4834 5.70817 14.2917C5.47484 14.0584 5.37484 13.7167 5.43317 13.3501L5.67484 11.6167C5.7165 11.3334 5.90817 10.9417 6.1165 10.7417L9.25817 7.60008C9.30817 7.75008 9.37484 7.90008 9.44984 8.06675C9.52484 8.21675 9.59984 8.36675 9.68317 8.50842C9.74984 8.62508 9.82484 8.74175 9.8915 8.82508C9.97484 8.95008 10.0582 9.05841 10.1165 9.11675C10.1498 9.16675 10.1832 9.20008 10.1915 9.21675C10.3748 9.42508 10.5665 9.62508 10.7498 9.77508C10.7998 9.82508 10.8332 9.85008 10.8415 9.85842C10.9498 9.94175 11.0498 10.0334 11.1498 10.0917C11.2582 10.1751 11.3748 10.2501 11.4915 10.3167C11.6332 10.4001 11.7832 10.4834 11.9415 10.5584C12.0998 10.6334 12.2498 10.6917 12.3998 10.7417L9.25817 13.8834ZM13.7915 9.35841L13.1415 10.0084C13.0998 10.0501 13.0415 10.0751 12.9832 10.0751C12.9665 10.0751 12.9332 10.0751 12.9165 10.0667C11.4832 9.65842 10.3415 8.51675 9.93317 7.08341C9.90817 7.00841 9.93317 6.92508 9.9915 6.86675L10.6498 6.20841C11.7248 5.13341 12.7415 5.15841 13.7915 6.20841C14.3248 6.74175 14.5915 7.25842 14.5832 7.79175C14.5832 8.31675 14.3248 8.82508 13.7915 9.35841Z" fill="#3F53FF"/>
</svg>
