<svg width="22" height="22" viewBox="0 0 22 22" fill="none" xmlns="http://www.w3.org/2000/svg">
<path d="M11.0002 15.3541C7.086 15.3541 3.896 12.1641 3.896 8.24992C3.896 4.33575 7.086 1.14575 11.0002 1.14575C14.9143 1.14575 18.1043 4.33575 18.1043 8.24992C18.1043 12.1641 14.9143 15.3541 11.0002 15.3541ZM11.0002 2.52075C7.83766 2.52075 5.271 5.08742 5.271 8.24992C5.271 11.4124 7.83766 13.9791 11.0002 13.9791C14.1627 13.9791 16.7293 11.4124 16.7293 8.24992C16.7293 5.08742 14.1627 2.52075 11.0002 2.52075Z" fill="#347AE2"/>
<path d="M11 20.8542C10.6242 20.8542 10.3125 20.5426 10.3125 20.1667V14.6667C10.3125 14.2909 10.6242 13.9792 11 13.9792C11.3758 13.9792 11.6875 14.2909 11.6875 14.6667V20.1667C11.6875 20.5426 11.3758 20.8542 11 20.8542Z" fill="#347AE2"/>
<path d="M13.75 18.1042H8.25C7.87417 18.1042 7.5625 17.7926 7.5625 17.4167C7.5625 17.0409 7.87417 16.7292 8.25 16.7292H13.75C14.1258 16.7292 14.4375 17.0409 14.4375 17.4167C14.4375 17.7926 14.1258 18.1042 13.75 18.1042Z" fill="#347AE2"/>
</svg>
