<svg width="24" height="24" viewBox="0 0 24 24" fill="none" xmlns="http://www.w3.org/2000/svg">
<rect x="3" y="3" width="18" height="18" rx="9" fill="#3F53FF"/>
<path d="M10.0131 14.14C10.7811 13.476 11.3851 12.932 11.8251 12.508C12.2731 12.076 12.6451 11.628 12.9411 11.164C13.2371 10.7 13.3851 10.236 13.3851 9.772C13.3851 9.292 13.2691 8.916 13.0371 8.644C12.8131 8.372 12.4571 8.236 11.9691 8.236C11.4971 8.236 11.1291 8.388 10.8651 8.692C10.6091 8.988 10.4731 9.388 10.4571 9.892H9.13711C9.16111 8.98 9.43311 8.284 9.95311 7.804C10.4811 7.316 11.1491 7.072 11.9571 7.072C12.8291 7.072 13.5091 7.312 13.9971 7.792C14.4931 8.272 14.7411 8.912 14.7411 9.712C14.7411 10.288 14.5931 10.844 14.2971 11.38C14.0091 11.908 13.6611 12.384 13.2531 12.808C12.8531 13.224 12.3411 13.708 11.7171 14.26L11.1771 14.74H14.9811V15.88H9.14911V14.884L10.0131 14.14Z" fill="white"/>
</svg>
