<svg width="20" height="20" viewBox="0 0 20 20" fill="none" xmlns="http://www.w3.org/2000/svg">
<path fill-rule="evenodd" clip-rule="evenodd" d="M3.20829 9.99984C3.20829 8.32579 3.20851 7.04498 3.25945 6.05174C3.31105 5.04545 3.41251 4.41737 3.5743 4.01291C3.71548 3.65996 3.89095 3.50016 4.16294 3.39438C4.49687 3.26452 5.00316 3.20817 5.83329 3.20817C6.6448 3.20817 7.21099 3.25961 7.60672 3.34755C8.00118 3.43521 8.17037 3.54698 8.24909 3.6257C8.3193 3.69591 8.37879 3.80021 8.41585 4.02254C8.45628 4.26516 8.45829 4.5652 8.45829 4.99984C8.45829 5.39104 8.77542 5.70817 9.16663 5.70817C9.55783 5.70817 9.87496 5.39104 9.87496 4.99984L9.87496 4.96436V4.96435C9.87502 4.57577 9.87508 4.1607 9.81324 3.78964C9.74613 3.38696 9.59729 2.97043 9.25083 2.62397C8.91289 2.28603 8.45707 2.0853 7.91404 1.96462C7.37226 1.84423 6.68846 1.7915 5.83329 1.7915C4.99675 1.7915 4.25305 1.83932 3.64948 2.07404C2.98397 2.33285 2.53444 2.79805 2.25895 3.48677C2.00407 4.12397 1.8972 4.95423 1.84464 5.97919C1.79163 7.01293 1.79163 8.3297 1.79163 9.97944V9.9796V9.99984V10.0201V10.0202C1.79163 11.67 1.79163 12.9867 1.84464 14.0205C1.8972 15.0454 2.00407 15.8757 2.25895 16.5129C2.53444 17.2016 2.98397 17.6668 3.64948 17.9256C4.25305 18.1604 4.99675 18.2082 5.83329 18.2082C6.68846 18.2082 7.37226 18.1554 7.91404 18.0351C8.45707 17.9144 8.91289 17.7136 9.25083 17.3757C9.59729 17.0292 9.74613 16.6127 9.81324 16.21C9.87508 15.839 9.87502 15.4239 9.87496 15.0353V15.0353L9.87496 14.9998C9.87496 14.6086 9.55783 14.2915 9.16663 14.2915C8.77542 14.2915 8.45829 14.6086 8.45829 14.9998C8.45829 15.4345 8.45628 15.7345 8.41585 15.9771C8.37879 16.1995 8.3193 16.3038 8.24909 16.374C8.17037 16.4527 8.00118 16.5645 7.60672 16.6521C7.21099 16.7401 6.6448 16.7915 5.83329 16.7915C5.00316 16.7915 4.49687 16.7352 4.16294 16.6053C3.89095 16.4995 3.71548 16.3397 3.5743 15.9868C3.41251 15.5823 3.31105 14.9542 3.25945 13.9479C3.20851 12.9547 3.20829 11.6739 3.20829 9.99984ZM14.6675 6.16564C14.3909 5.88902 13.9424 5.88902 13.6658 6.16564C13.3891 6.44226 13.3891 6.89075 13.6658 7.16737L15.7899 9.2915H9.16663C8.77542 9.2915 8.45829 9.60864 8.45829 9.99984C8.45829 10.391 8.77542 10.7082 9.16663 10.7082H15.7899L13.6658 12.8323C13.3891 13.1089 13.3891 13.5574 13.6658 13.834C13.9424 14.1107 14.3909 14.1107 14.6675 13.834L18.0008 10.5007C18.2774 10.2241 18.2774 9.77559 18.0008 9.49897L14.6675 6.16564Z" fill="#252525"/>
</svg>
