<svg width="20" height="20" viewBox="0 0 20 20" fill="none" xmlns="http://www.w3.org/2000/svg">
<path d="M14.158 8.09155H5.84131C5.49964 8.09155 5.21631 7.80822 5.21631 7.46655C5.21631 7.12489 5.49964 6.84155 5.84131 6.84155H14.158C14.4996 6.84155 14.783 7.12489 14.783 7.46655C14.783 7.80822 14.4996 8.09155 14.158 8.09155Z" fill="#34C759"/>
<path d="M10 8.09164C9.65833 8.09164 9.375 7.80831 9.375 7.46664V6.06665C9.375 5.72498 9.65833 5.44165 10 5.44165C10.3417 5.44165 10.625 5.72498 10.625 6.06665V7.46664C10.625 7.80831 10.3417 8.09164 10 8.09164Z" fill="#34C759"/>
<path d="M5.8335 14.5583C5.49183 14.5583 5.2085 14.2749 5.2085 13.9333C5.2085 13.5916 5.49183 13.3083 5.8335 13.3083C8.9335 13.3083 11.4585 10.6833 11.4585 7.44995C11.4585 7.10828 11.7418 6.82495 12.0835 6.82495C12.4252 6.82495 12.7085 7.10828 12.7085 7.44995C12.7085 11.375 9.62516 14.5583 5.8335 14.5583Z" fill="#34C759"/>
<path d="M14.1669 14.5583C12.5252 14.5583 11.0002 13.7417 9.88352 12.25C9.67519 11.975 9.73354 11.5833 10.0085 11.375C10.2835 11.1667 10.6752 11.225 10.8835 11.5C11.7669 12.6666 12.9335 13.3083 14.1752 13.3083C14.5169 13.3083 14.8002 13.5916 14.8002 13.9333C14.8002 14.2749 14.5085 14.5583 14.1669 14.5583Z" fill="#34C759"/>
<path d="M12.4998 18.9584H7.49984C2.97484 18.9584 1.0415 17.0251 1.0415 12.5001V7.50008C1.0415 2.97508 2.97484 1.04175 7.49984 1.04175H12.4998C17.0248 1.04175 18.9582 2.97508 18.9582 7.50008V12.5001C18.9582 17.0251 17.0248 18.9584 12.4998 18.9584ZM7.49984 2.29175C3.65817 2.29175 2.2915 3.65841 2.2915 7.50008V12.5001C2.2915 16.3417 3.65817 17.7084 7.49984 17.7084H12.4998C16.3415 17.7084 17.7082 16.3417 17.7082 12.5001V7.50008C17.7082 3.65841 16.3415 2.29175 12.4998 2.29175H7.49984Z" fill="#34C759"/>
</svg>
