<svg width="40" height="40" viewBox="0 0 40 40" fill="none" xmlns="http://www.w3.org/2000/svg">
<path d="M40 20C40 22.6264 39.4827 25.2272 38.4776 27.6537C37.4725 30.0802 35.9993 32.285 34.1421 34.1421C32.285 35.9993 30.0802 37.4725 27.6537 38.4776C25.2272 39.4827 22.6264 40 20 40C17.3736 40 14.7728 39.4827 12.3463 38.4776C9.91982 37.4725 7.71503 35.9993 5.85786 34.1421C4.00069 32.285 2.5275 30.0802 1.52241 27.6537C0.517315 25.2272 -2.2961e-07 22.6264 0 20H9C9 21.4445 9.28452 22.8749 9.83733 24.2095C10.3901 25.5441 11.2004 26.7567 12.2218 27.7782C13.2433 28.7996 14.4559 29.6099 15.7905 30.1627C17.1251 30.7155 18.5555 31 20 31C21.4445 31 22.8749 30.7155 24.2095 30.1627C25.5441 29.6099 26.7567 28.7996 27.7782 27.7782C28.7996 26.7567 29.6099 25.5441 30.1627 24.2095C30.7155 22.8749 31 21.4445 31 20H40Z" fill="#050505"/>
<path d="M30.8348 19.9682C30.8348 18.5412 30.5538 17.1281 30.0077 15.8097C29.4616 14.4913 28.6611 13.2934 27.6521 12.2843C26.643 11.2753 25.4451 10.4748 24.1267 9.92874C22.8083 9.38264 21.3952 9.10156 19.9682 9.10156C18.5411 9.10156 17.1281 9.38264 15.8097 9.92874C14.4913 10.4748 13.2933 11.2753 12.2843 12.2843C11.2752 13.2934 10.4748 14.4913 9.92868 15.8097C9.38258 17.1281 9.1015 18.5412 9.1015 19.9682L19.9682 19.9682H30.8348Z" fill="#050505"/>
</svg>
