<svg width="22" height="22" viewBox="0 0 22 22" fill="none" xmlns="http://www.w3.org/2000/svg">
<path d="M9.39567 20.3958C5.0965 20.3958 1.604 16.9033 1.604 12.6042C1.604 8.305 5.0965 4.8125 9.39567 4.8125C13.6948 4.8125 17.1873 8.305 17.1873 12.6042C17.1873 16.9033 13.6948 20.3958 9.39567 20.3958ZM9.39567 6.1875C5.85734 6.1875 2.979 9.06583 2.979 12.6042C2.979 16.1425 5.85734 19.0208 9.39567 19.0208C12.934 19.0208 15.8123 16.1425 15.8123 12.6042C15.8123 9.06583 12.934 6.1875 9.39567 6.1875Z" fill="#347AE2"/>
<path d="M14.6667 8.02082C14.4925 8.02082 14.3183 7.95665 14.1808 7.81915C13.915 7.55332 13.915 7.11332 14.1808 6.84749L19.2225 1.80582C19.4883 1.53999 19.9283 1.53999 20.1942 1.80582C20.46 2.07165 20.46 2.51165 20.1942 2.77749L15.1525 7.81915C15.015 7.95665 14.8408 8.02082 14.6667 8.02082Z" fill="#347AE2"/>
<path d="M19.7083 8.93758C19.3325 8.93758 19.0208 8.62591 19.0208 8.25008V2.97925H13.75C13.3742 2.97925 13.0625 2.66758 13.0625 2.29175C13.0625 1.91591 13.3742 1.60425 13.75 1.60425H19.7083C20.0842 1.60425 20.3958 1.91591 20.3958 2.29175V8.25008C20.3958 8.62591 20.0842 8.93758 19.7083 8.93758Z" fill="#347AE2"/>
</svg>
