<svg width="22" height="22" viewBox="0 0 22 22" fill="none" xmlns="http://www.w3.org/2000/svg">
<path d="M8.39635 10.6516C8.36885 10.6516 8.35052 10.6516 8.32302 10.6516C8.27719 10.6424 8.21302 10.6424 8.15802 10.6516C5.49969 10.5691 3.49219 8.47909 3.49219 5.90325C3.49219 3.28159 5.62802 1.14575 8.24969 1.14575C10.8714 1.14575 13.0072 3.28159 13.0072 5.90325C12.998 8.47909 10.9814 10.5691 8.42385 10.6516C8.41469 10.6516 8.40552 10.6516 8.39635 10.6516ZM8.24969 2.52075C6.38885 2.52075 4.86719 4.04242 4.86719 5.90325C4.86719 7.73659 6.29719 9.21242 8.12135 9.27659C8.17635 9.26742 8.29552 9.26742 8.41469 9.27659C10.2114 9.19409 11.623 7.71825 11.6322 5.90325C11.6322 4.04242 10.1105 2.52075 8.24969 2.52075Z" fill="#347AE2"/>
<path d="M15.1612 10.7709C15.1337 10.7709 15.1062 10.7709 15.0787 10.7617C14.7028 10.7984 14.3178 10.5326 14.2812 10.1567C14.2445 9.78091 14.4737 9.44175 14.8495 9.39591C14.9595 9.38675 15.0787 9.38675 15.1795 9.38675C16.5178 9.31341 17.5628 8.21341 17.5628 6.86591C17.5628 5.47258 16.4353 4.34508 15.042 4.34508C14.6662 4.35425 14.3545 4.04258 14.3545 3.66675C14.3545 3.29091 14.6662 2.97925 15.042 2.97925C17.187 2.97925 18.9378 4.73008 18.9378 6.87508C18.9378 8.98341 17.2878 10.6884 15.1887 10.7709C15.1795 10.7709 15.1703 10.7709 15.1612 10.7709Z" fill="#347AE2"/>
<path d="M8.40548 20.6709C6.60881 20.6709 4.80298 20.2126 3.43714 19.2959C2.16298 18.4526 1.46631 17.2976 1.46631 16.0417C1.46631 14.7859 2.16298 13.6217 3.43714 12.7692C6.18714 10.9451 10.6421 10.9451 13.3738 12.7692C14.6388 13.6126 15.3446 14.7676 15.3446 16.0234C15.3446 17.2792 14.648 18.4434 13.3738 19.2959C11.9988 20.2126 10.2021 20.6709 8.40548 20.6709ZM4.19798 13.9242C3.31798 14.5109 2.84131 15.2626 2.84131 16.0509C2.84131 16.8301 3.32714 17.5817 4.19798 18.1592C6.48048 19.6901 10.3305 19.6901 12.613 18.1592C13.493 17.5726 13.9696 16.8209 13.9696 16.0326C13.9696 15.2534 13.4838 14.5017 12.613 13.9242C10.3305 12.4026 6.48048 12.4026 4.19798 13.9242Z" fill="#347AE2"/>
<path d="M16.8113 19.0208C16.4905 19.0208 16.2063 18.8008 16.1422 18.4708C16.0688 18.095 16.3072 17.7375 16.6738 17.655C17.2513 17.5358 17.783 17.3067 18.1955 16.9859C18.718 16.5917 19.0022 16.0967 19.0022 15.5742C19.0022 15.0517 18.718 14.5567 18.2047 14.1717C17.8013 13.86 17.2972 13.64 16.7013 13.5025C16.3347 13.42 16.0963 13.0534 16.1788 12.6775C16.2613 12.3109 16.628 12.0725 17.0038 12.155C17.7922 12.3292 18.4797 12.6409 19.0388 13.0717C19.8913 13.7134 20.3772 14.6209 20.3772 15.5742C20.3772 16.5275 19.8822 17.435 19.0297 18.0858C18.4613 18.5258 17.7463 18.8467 16.958 19.0025C16.903 19.0208 16.8572 19.0208 16.8113 19.0208Z" fill="#347AE2"/>
</svg>
