<svg width="24" height="24" viewBox="0 0 24 24" fill="none" xmlns="http://www.w3.org/2000/svg">
<path fill-rule="evenodd" clip-rule="evenodd" d="M3.8499 9.9999C3.8499 6.60335 6.60335 3.8499 9.9999 3.8499C13.3965 3.8499 16.1499 6.60335 16.1499 9.9999C16.1499 13.3965 13.3965 16.1499 9.9999 16.1499C6.60335 16.1499 3.8499 13.3965 3.8499 9.9999ZM9.9999 2.1499C5.66447 2.1499 2.1499 5.66447 2.1499 9.9999C2.1499 14.3353 5.66447 17.8499 9.9999 17.8499C11.8614 17.8499 13.5716 17.202 14.9172 16.1193L20.3989 21.6009C20.7308 21.9329 21.269 21.9329 21.6009 21.6009C21.9329 21.269 21.9329 20.7308 21.6009 20.3989L16.1193 14.9172C17.202 13.5716 17.8499 11.8614 17.8499 9.9999C17.8499 5.66447 14.3353 2.1499 9.9999 2.1499Z" fill="black"/>
</svg>
