<svg width="24" height="24" viewBox="0 0 24 24" fill="none" xmlns="http://www.w3.org/2000/svg">
<path fill-rule="evenodd" clip-rule="evenodd" d="M6.60555 6.51369C8.19373 7.05866 9.85704 5.96481 10.1525 4.45566C10.3342 3.67131 10.5474 3.32831 10.7589 3.15276C10.9631 2.98331 11.3115 2.8499 12.0683 2.8499C12.6539 2.8499 12.9863 2.9972 13.2034 3.20121C13.4369 3.42064 13.6534 3.81461 13.7833 4.52733L13.7833 4.52733L13.7841 4.53179C13.9395 5.35906 14.509 5.9829 15.171 6.32801C15.8349 6.6741 16.6678 6.7831 17.453 6.50667C17.464 6.50282 17.4748 6.49876 17.4855 6.49447C18.2387 6.19422 18.6481 6.20015 18.8981 6.28459C19.144 6.36764 19.4261 6.59071 19.775 7.18195C20.1317 7.78626 20.1787 8.10871 20.1377 8.32677C20.0949 8.55505 19.9138 8.89261 19.2774 9.42079L19.2657 9.43063C17.9885 10.5298 17.9885 12.47 19.2657 13.5692L19.2774 13.579C19.9138 14.1072 20.0949 14.4448 20.1377 14.673C20.1787 14.8911 20.1317 15.2135 19.775 15.8179C19.428 16.4057 19.1417 16.6391 18.882 16.7327C18.6168 16.8283 18.1996 16.8427 17.4488 16.5867C15.926 16.0534 14.0762 16.9607 13.7818 18.6707C13.651 19.4304 13.4407 19.7311 13.2527 19.8766C13.0501 20.0336 12.697 20.1499 11.9701 20.1499C11.2705 20.1499 10.9105 20.0197 10.6989 19.85C10.4939 19.6855 10.2863 19.3693 10.1576 18.6661C9.8607 16.959 8.01294 16.0539 6.49144 16.5867C5.74068 16.8427 5.32348 16.8283 5.05826 16.7327C4.79852 16.6391 4.51222 16.4057 4.16523 15.8179C4.16047 15.8098 4.15559 15.8018 4.15057 15.7939C3.84551 15.314 3.81361 14.9814 3.87819 14.72C3.95076 14.4261 4.18763 14.0488 4.75688 13.5824L4.77267 13.5692C6.07189 12.4511 5.9292 10.5133 4.67821 9.52695C4.11061 8.97065 3.9334 8.61698 3.89222 8.36068C3.85303 8.11676 3.90933 7.78503 4.25613 7.19423C4.57418 6.69771 4.86777 6.48707 5.15534 6.39848C5.4641 6.30337 5.90822 6.30471 6.60555 6.51369ZM12.0683 1.1499C11.1569 1.1499 10.3277 1.3015 9.67333 1.84454C9.02757 2.38042 8.70241 3.1743 8.49229 4.08974C8.48975 4.10079 8.48744 4.11188 8.48535 4.12302C8.3793 4.68772 7.70777 5.09955 7.14987 4.90314C7.13793 4.89893 7.12588 4.89499 7.11376 4.89132C6.25025 4.63007 5.42314 4.53716 4.65487 4.77382C3.8653 5.01705 3.27809 5.56381 2.814 6.29393C2.80898 6.30182 2.80409 6.3098 2.79934 6.31785C2.36758 7.04936 2.08149 7.80723 2.21375 8.63037C2.3435 9.43791 2.8471 10.1205 3.52886 10.7806C3.55407 10.805 3.58077 10.8278 3.60879 10.8489C4.07877 11.2028 4.11446 11.886 3.67012 12.2751C2.9683 12.852 2.42417 13.5172 2.22778 14.3123C2.02361 15.1389 2.23367 15.9422 2.70824 16.6938C3.14508 17.4307 3.69123 18.0472 4.4821 18.3321C5.27135 18.6164 6.12897 18.507 7.04433 18.1942L7.04434 18.1943L7.05175 18.1917C7.68683 17.9681 8.38522 18.3907 8.48307 18.9591L8.48303 18.9591L8.48452 18.9673C8.65025 19.8765 8.98195 20.652 9.63521 21.1761C10.2822 21.6951 11.0997 21.8499 11.9701 21.8499C12.8133 21.8499 13.6377 21.7287 14.2937 21.2207C14.9643 20.7013 15.2936 19.9094 15.4572 18.9591C15.555 18.3907 16.2534 17.9681 16.8885 18.1917L16.8885 18.1917L16.8959 18.1942C17.8113 18.507 18.6689 18.6164 19.4582 18.3321C20.2533 18.0457 20.801 17.4241 21.239 16.682C21.6674 15.9563 21.9638 15.1862 21.8085 14.3593C21.6556 13.5451 21.1037 12.8867 20.3698 12.2764C19.8872 11.8564 19.8872 11.1434 20.3698 10.7234C21.1037 10.1131 21.6556 9.45474 21.8085 8.64054C21.9638 7.81359 21.6674 7.04354 21.239 6.31785C20.803 5.57909 20.251 4.94717 19.4421 4.67396C18.6428 4.40404 17.783 4.54855 16.8751 4.90776C16.5839 5.00566 16.2453 4.97089 15.9569 4.82055C15.6629 4.6673 15.4967 4.43693 15.4552 4.21969C15.2906 3.31855 14.9675 2.52609 14.3675 1.96234C13.7506 1.38261 12.9545 1.1499 12.0683 1.1499ZM9.8502 11.4999C9.8502 10.3125 10.8128 9.3499 12.0002 9.3499C13.1876 9.3499 14.1502 10.3125 14.1502 11.4999C14.1502 12.6873 13.1876 13.6499 12.0002 13.6499C10.8128 13.6499 9.8502 12.6873 9.8502 11.4999ZM12.0002 7.6499C9.8739 7.6499 8.1502 9.37361 8.1502 11.4999C8.1502 13.6262 9.8739 15.3499 12.0002 15.3499C14.1265 15.3499 15.8502 13.6262 15.8502 11.4999C15.8502 9.37361 14.1265 7.6499 12.0002 7.6499Z" fill="#7C8DB5"/>
</svg>
