<svg width="22" height="22" viewBox="0 0 22 22" fill="none" xmlns="http://www.w3.org/2000/svg">
<path d="M11.0007 1.8335C5.94982 1.8335 1.83398 5.94933 1.83398 11.0002C1.83398 16.051 5.94982 20.1668 11.0007 20.1668C16.0515 20.1668 20.1673 16.051 20.1673 11.0002C20.1673 5.94933 16.0515 1.8335 11.0007 1.8335ZM14.6673 11.6877H11.6882V14.6668C11.6882 15.0427 11.3765 15.3543 11.0007 15.3543C10.6248 15.3543 10.3132 15.0427 10.3132 14.6668V11.6877H7.33398C6.95815 11.6877 6.64648 11.376 6.64648 11.0002C6.64648 10.6243 6.95815 10.3127 7.33398 10.3127H10.3132V7.3335C10.3132 6.95766 10.6248 6.646 11.0007 6.646C11.3765 6.646 11.6882 6.95766 11.6882 7.3335V10.3127H14.6673C15.0432 10.3127 15.3548 10.6243 15.3548 11.0002C15.3548 11.376 15.0432 11.6877 14.6673 11.6877Z" fill="#00C10A"/>
</svg>
