<svg width="24" height="24" viewBox="0 0 24 24" fill="none" xmlns="http://www.w3.org/2000/svg">
<path fill-rule="evenodd" clip-rule="evenodd" d="M8.3499 7.4999C8.3499 5.85156 9.88718 4.3499 11.9999 4.3499C14.1126 4.3499 15.6499 5.85156 15.6499 7.4999C15.6499 9.14825 14.1126 10.6499 11.9999 10.6499C9.88718 10.6499 8.3499 9.14825 8.3499 7.4999ZM11.9999 2.6499C9.14206 2.6499 6.6499 4.72997 6.6499 7.4999C6.6499 10.2698 9.14206 12.3499 11.9999 12.3499C14.8577 12.3499 17.3499 10.2698 17.3499 7.4999C17.3499 4.72997 14.8577 2.6499 11.9999 2.6499ZM5.3499 17.9999C5.3499 17.4298 5.83852 16.7627 7.17541 16.1959C8.4497 15.6557 10.2053 15.3499 11.9999 15.3499C13.7752 15.3499 15.5297 15.7072 16.8109 16.2766C17.4525 16.5618 17.9354 16.8824 18.2459 17.2018C18.5527 17.5174 18.6499 17.7848 18.6499 17.9999C18.6499 18.0493 18.633 18.178 18.3874 18.382C18.1344 18.5923 17.7112 18.8152 17.0951 19.0148C15.8703 19.4116 14.0918 19.6499 11.9999 19.6499C9.908 19.6499 8.12955 19.4116 6.90469 19.0148C6.28863 18.8152 5.8654 18.5923 5.61236 18.382C5.36682 18.178 5.3499 18.0493 5.3499 17.9999ZM11.9999 13.6499C10.0445 13.6499 8.0501 13.9787 6.51189 14.6308C5.03628 15.2563 3.6499 16.3392 3.6499 17.9999C3.6499 18.7152 4.03477 19.2814 4.52584 19.6895C5.0094 20.0913 5.6576 20.3978 6.38082 20.6321C7.83454 21.103 9.80609 21.3499 11.9999 21.3499C14.1937 21.3499 16.1653 21.103 17.619 20.6321C18.3422 20.3978 18.9904 20.0913 19.474 19.6895C19.965 19.2814 20.3499 18.7152 20.3499 17.9999C20.3499 17.215 19.9783 16.5449 19.4648 16.0168C18.955 15.4924 18.266 15.063 17.5014 14.7232C15.9701 14.0426 13.9746 13.6499 11.9999 13.6499Z" fill="#7C8DB5"/>
</svg>
