<svg width="290" height="141" viewBox="0 0 290 141" fill="none" xmlns="http://www.w3.org/2000/svg">
<rect x="53.4214" y="0.0527344" width="236.579" height="27.2556" rx="13.6278" fill="#3F53FF" fill-opacity="0.1"/>
<rect x="15.2632" y="36.0302" width="215.865" height="27.2556" rx="13.6278" fill="#3F53FF" fill-opacity="0.1"/>
<rect x="57.7822" y="77.4587" width="206.053" height="27.2556" rx="13.6278" fill="#3F53FF" fill-opacity="0.1"/>
<rect x="43.6089" y="113.436" width="189.699" height="27.2556" rx="13.6278" fill="#3F53FF" fill-opacity="0.1"/>
<rect x="245.301" y="36.0302" width="32.7067" height="27.2556" rx="13.6278" fill="#3F53FF" fill-opacity="0.1"/>
<rect y="77.4587" width="43.609" height="27.2556" rx="13.6278" fill="#3F53FF" fill-opacity="0.1"/>
<circle cx="144.999" cy="69.3916" r="56.9643" fill="white"/>
<path d="M145 12.4266C113.613 12.4266 88.0356 38.0036 88.0356 69.3909C88.0356 100.778 113.613 126.355 145 126.355C176.387 126.355 201.964 100.778 201.964 69.3909C201.964 38.0036 176.387 12.4266 145 12.4266ZM172.229 56.2891L139.93 88.5878C139.133 89.3853 138.05 89.8411 136.911 89.8411C135.772 89.8411 134.689 89.3853 133.892 88.5878L117.771 72.467C116.119 70.815 116.119 68.0807 117.771 66.4287C119.423 64.7768 122.157 64.7768 123.809 66.4287L136.911 79.5305L166.191 50.2509C167.843 48.5989 170.577 48.5989 172.229 50.2509C173.881 51.9029 173.881 54.5802 172.229 56.2891Z" fill="#3F53FF"/>
</svg>
