<svg width="30" height="30" viewBox="0 0 30 30" fill="none" xmlns="http://www.w3.org/2000/svg">
<path d="M30 15C30 16.9698 29.612 18.9204 28.8582 20.7403C28.1044 22.5601 26.9995 24.2137 25.6066 25.6066C24.2137 26.9995 22.5601 28.1044 20.7403 28.8582C18.9204 29.612 16.9698 30 15 30C13.0302 30 11.0796 29.612 9.25975 28.8582C7.43986 28.1044 5.78628 26.9995 4.3934 25.6066C3.00052 24.2137 1.89563 22.5601 1.14181 20.7403C0.387986 18.9204 -1.72208e-07 16.9698 0 15L6.75 15C6.75 16.0834 6.96339 17.1562 7.37799 18.1571C7.79259 19.1581 8.40029 20.0675 9.16637 20.8336C9.93245 21.5997 10.8419 22.2074 11.8429 22.622C12.8438 23.0366 13.9166 23.25 15 23.25C16.0834 23.25 17.1562 23.0366 18.1571 22.622C19.1581 22.2074 20.0675 21.5997 20.8336 20.8336C21.5997 20.0675 22.2074 19.1581 22.622 18.1571C23.0366 17.1562 23.25 16.0834 23.25 15H30Z" fill="white"/>
<path d="M23.1261 14.9761C23.1261 13.9058 22.9153 12.846 22.5057 11.8572C22.0962 10.8684 21.4958 9.96996 20.739 9.21316C19.9822 8.45636 19.0838 7.85604 18.095 7.44646C17.1062 7.03689 16.0464 6.82608 14.9761 6.82608C13.9058 6.82608 12.846 7.03689 11.8572 7.44646C10.8684 7.85604 9.96999 8.45636 9.21319 9.21316C8.45639 9.96996 7.85607 10.8684 7.44649 11.8572C7.03692 12.846 6.82611 13.9058 6.82611 14.9761L14.9761 14.9761H23.1261Z" fill="white"/>
</svg>
