<svg width="87" height="167" viewBox="0 0 87 167" fill="none" xmlns="http://www.w3.org/2000/svg">
<path d="M78.1049 143.765L65.2649 137.345C56.6399 133.025 53.0999 136.565 57.4199 145.19L58.7249 147.8C59.0999 148.565 59.0999 149.45 58.7249 150.215L57.4199 152.81C53.0999 161.435 56.6249 164.975 65.2649 160.655L78.1049 154.235C83.8649 151.355 83.8649 146.645 78.1049 143.765ZM73.2599 150.125H65.1599C64.5449 150.125 64.0349 149.615 64.0349 149C64.0349 148.385 64.5449 147.875 65.1599 147.875H73.2599C73.8749 147.875 74.3849 148.385 74.3849 149C74.3849 149.615 73.8749 150.125 73.2599 150.125Z" fill="#3F53FF"/>
<path d="M59.9706 1.96338C46.7086 1.96338 34.8207 8.6084 23.9011 15.7744C11.1825 24.1209 4.21881 34.7884 3.18457 50.3019C2.62761 58.6563 0.859915 64.2667 5.06179 72.0241C9.52638 80.2664 17.3833 86.2 24.9738 91.5338C29.9026 94.9973 37.4218 97.098 40.662 91.2656C43.8028 85.6123 41.7348 79.7098 36.3712 76.7842C32.9412 74.9133 30.8982 71.8918 26.4487 73.432C23.289 74.5257 18.7724 81.0074 17.666 83.9578C13.445 95.2139 9.76625 105.326 14.1127 117.279C19.103 131.002 31.3499 138.574 43.6119 144.364C45.9433 145.465 62.6734 150.977 61.1774 147.985" stroke="#3F53FF" stroke-width="3" stroke-linecap="round"/>
</svg>
