<svg width="18" height="19" viewBox="0 0 18 19" fill="none" xmlns="http://www.w3.org/2000/svg">
<path d="M7.10244 11.96C6.95994 11.96 6.81744 11.9075 6.70494 11.795C6.08994 11.18 5.75244 10.3625 5.75244 9.5C5.75244 7.7075 7.20744 6.2525 8.99994 6.2525C9.86244 6.2525 10.6799 6.59 11.2949 7.205C11.3999 7.31 11.4599 7.4525 11.4599 7.6025C11.4599 7.7525 11.3999 7.895 11.2949 8L7.49994 11.795C7.38744 11.9075 7.24494 11.96 7.10244 11.96ZM8.99994 7.3775C7.82994 7.3775 6.87744 8.33 6.87744 9.5C6.87744 9.875 6.97494 10.235 7.15494 10.55L10.0499 7.655C9.73494 7.475 9.37494 7.3775 8.99994 7.3775Z" fill="#050505"/>
<path d="M4.2 14.3825C4.0725 14.3825 3.9375 14.3375 3.8325 14.2475C3.03 13.565 2.31 12.725 1.695 11.75C0.900005 10.5125 0.900005 8.49499 1.695 7.24999C3.525 4.38499 6.1875 2.73499 9 2.73499C10.65 2.73499 12.2775 3.30499 13.7025 4.37749C13.95 4.56499 14.0025 4.91749 13.815 5.16499C13.6275 5.41249 13.275 5.46499 13.0275 5.27749C11.7975 4.34749 10.4025 3.85999 9 3.85999C6.5775 3.85999 4.26 5.31499 2.64 7.85749C2.0775 8.73499 2.0775 10.265 2.64 11.1425C3.2025 12.02 3.8475 12.7775 4.56 13.3925C4.7925 13.595 4.8225 13.9475 4.62 14.1875C4.515 14.315 4.3575 14.3825 4.2 14.3825Z" fill="#050505"/>
<path d="M9.00005 16.265C8.00255 16.265 7.02755 16.0625 6.09005 15.665C5.80505 15.545 5.67005 15.215 5.79005 14.93C5.91005 14.645 6.24005 14.51 6.52505 14.63C7.32005 14.9675 8.15255 15.14 8.99255 15.14C11.415 15.14 13.7325 13.685 15.3525 11.1425C15.915 10.265 15.915 8.735 15.3525 7.8575C15.12 7.49 14.865 7.1375 14.595 6.8075C14.4 6.5675 14.4375 6.215 14.6775 6.0125C14.9175 5.8175 15.27 5.8475 15.4725 6.095C15.765 6.455 16.05 6.845 16.305 7.25C17.1 8.4875 17.1 10.505 16.305 11.75C14.475 14.615 11.8125 16.265 9.00005 16.265Z" fill="#050505"/>
<path d="M9.51756 12.7025C9.25506 12.7025 9.01506 12.515 8.96256 12.245C8.90256 11.9375 9.10506 11.645 9.41256 11.5925C10.2376 11.4425 10.9276 10.7525 11.0776 9.92751C11.1376 9.62001 11.4301 9.42501 11.7376 9.47751C12.0451 9.53751 12.2476 9.83002 12.1876 10.1375C11.9476 11.435 10.9126 12.4625 9.62256 12.7025C9.58506 12.695 9.55506 12.7025 9.51756 12.7025Z" fill="#050505"/>
<path d="M1.49996 17.5625C1.35746 17.5625 1.21496 17.51 1.10246 17.3975C0.884956 17.18 0.884956 16.82 1.10246 16.6025L6.70496 11C6.92246 10.7825 7.28246 10.7825 7.49996 11C7.71746 11.2175 7.71746 11.5775 7.49996 11.795L1.89746 17.3975C1.78496 17.51 1.64246 17.5625 1.49996 17.5625Z" fill="#050505"/>
<path d="M10.8975 8.16502C10.755 8.16502 10.6125 8.11252 10.5 8.00002C10.2825 7.78252 10.2825 7.42252 10.5 7.20502L16.1025 1.60252C16.32 1.38502 16.68 1.38502 16.8975 1.60252C17.115 1.82002 17.115 2.18002 16.8975 2.39752L11.295 8.00002C11.1825 8.11252 11.04 8.16502 10.8975 8.16502Z" fill="#050505"/>
</svg>
