<svg width="20" height="20" viewBox="0 0 20 20" fill="none" xmlns="http://www.w3.org/2000/svg">
<path d="M9.99996 1.66666C5.39996 1.66666 1.66663 5.39999 1.66663 9.99999C1.66663 14.6 5.39996 18.3333 9.99996 18.3333C14.6 18.3333 18.3333 14.6 18.3333 9.99999C18.3333 5.39999 14.6 1.66666 9.99996 1.66666ZM14.1666 14.5583C12.7416 14.5583 11.4083 13.9417 10.3416 12.8C9.13329 13.8917 7.55829 14.5583 5.83329 14.5583C5.49163 14.5583 5.20829 14.275 5.20829 13.9333C5.20829 13.5917 5.49163 13.3083 5.83329 13.3083C8.72496 13.3083 11.1166 11.0167 11.425 8.08332H9.99996H5.84163C5.49996 8.08332 5.21663 7.79999 5.21663 7.45832C5.21663 7.11666 5.49996 6.84166 5.84163 6.84166H9.37496V6.06666C9.37496 5.72499 9.65829 5.44166 9.99996 5.44166C10.3416 5.44166 10.625 5.72499 10.625 6.06666V6.84166H12.0333C12.05 6.84166 12.0666 6.83332 12.0833 6.83332C12.1 6.83332 12.1166 6.84166 12.1333 6.84166H14.1583C14.5 6.84166 14.7833 7.12499 14.7833 7.46666C14.7833 7.80832 14.5 8.09166 14.1583 8.09166H12.675C12.55 9.51666 12.0166 10.825 11.2 11.8917C12.0333 12.8167 13.075 13.3167 14.1666 13.3167C14.5083 13.3167 14.7916 13.6 14.7916 13.9417C14.7916 14.2833 14.5083 14.5583 14.1666 14.5583Z" fill="#050505"/>
</svg>
