<svg width="35" height="35" viewBox="0 0 35 35" fill="none" xmlns="http://www.w3.org/2000/svg">
<path d="M35 17.5C35 19.7981 34.5473 22.0738 33.6679 24.197C32.7884 26.3202 31.4994 28.2493 29.8744 29.8744C28.2493 31.4994 26.3202 32.7884 24.197 33.6679C22.0738 34.5473 19.7981 35 17.5 35C15.2019 35 12.9262 34.5473 10.803 33.6679C8.67984 32.7884 6.75066 31.4994 5.12563 29.8744C3.50061 28.2493 2.21156 26.3202 1.33211 24.197C0.45265 22.0738 -2.00909e-07 19.7981 0 17.5L7.875 17.5C7.875 18.764 8.12396 20.0156 8.60766 21.1833C9.09136 22.3511 9.80033 23.4121 10.6941 24.3059C11.5879 25.1997 12.6489 25.9086 13.8167 26.3923C14.9844 26.876 16.236 27.125 17.5 27.125C18.764 27.125 20.0156 26.876 21.1833 26.3923C22.3511 25.9086 23.4121 25.1997 24.3059 24.3059C25.1997 23.4121 25.9086 22.3511 26.3923 21.1833C26.876 20.0156 27.125 18.764 27.125 17.5H35Z" fill="#050505"/>
<path d="M26.9805 17.4721C26.9805 16.2235 26.7345 14.987 26.2567 13.8334C25.7789 12.6798 25.0785 11.6316 24.1955 10.7487C23.3126 9.86577 22.2644 9.16539 21.1108 8.68755C19.9572 8.20972 18.7208 7.96378 17.4721 7.96378C16.2235 7.96378 14.9871 8.20972 13.8335 8.68755C12.6799 9.16539 11.6317 9.86577 10.7487 10.7487C9.8658 11.6316 9.16542 12.6798 8.68758 13.8334C8.20975 14.987 7.96381 16.2235 7.96381 17.4721L17.4721 17.4721H26.9805Z" fill="#050505"/>
</svg>
